<svg xmlns="http://www.w3.org/2000/svg" viewBox="0 0 120 80" fill="none">
  <rect x="8" y="15" width="104" height="50" rx="3" stroke="#aaa" stroke-width="3" fill="#f5f5f5"/>
  <rect x="16" y="22" width="78" height="36" rx="2" fill="#fff" stroke="#bbb" stroke-width="2"/>
  <!-- Pin grid -->
  <g fill="#999">
    <circle cx="26" cy="32" r="2"/><circle cx="36" cy="32" r="2"/><circle cx="46" cy="32" r="2"/><circle cx="56" cy="32" r="2"/><circle cx="66" cy="32" r="2"/><circle cx="76" cy="32" r="2"/>
    <circle cx="26" cy="42" r="2"/><circle cx="36" cy="42" r="2"/><circle cx="46" cy="42" r="2"/><circle cx="56" cy="42" r="2"/><circle cx="66" cy="42" r="2"/><circle cx="76" cy="42" r="2"/>
    <circle cx="26" cy="52" r="2"/><circle cx="36" cy="52" r="2"/><circle cx="46" cy="52" r="2"/><circle cx="56" cy="52" r="2"/><circle cx="66" cy="52" r="2"/><circle cx="76" cy="52" r="2"/>
  </g>
  <!-- Flat blade -->
  <rect x="98" y="28" width="8" height="24" rx="1" fill="#fff" stroke="#bbb" stroke-width="1.5"/>
  <line x1="102" y1="32" x2="102" y2="48" stroke="#ccc" stroke-width="2"/>
</svg>
