<svg xmlns="http://www.w3.org/2000/svg" viewBox="0 0 120 80" fill="none">
  <path d="M15 20 L105 20 L98 56 L22 56 Z" stroke="#0055bb" stroke-width="3" fill="#e8f0fe"/>
  <path d="M25 28 L95 28 L90 48 L30 48 Z" stroke="#bbb" stroke-width="2" fill="#fff"/>
  <!-- 15 pins in 3 rows -->
  <g fill="#0055bb">
    <circle cx="38" cy="33" r="2"/><circle cx="48" cy="33" r="2"/><circle cx="58" cy="33" r="2"/><circle cx="68" cy="33" r="2"/><circle cx="78" cy="33" r="2"/>
    <circle cx="43" cy="39" r="2"/><circle cx="53" cy="39" r="2"/><circle cx="63" cy="39" r="2"/><circle cx="73" cy="39" r="2"/>
    <circle cx="38" cy="45" r="2"/><circle cx="48" cy="45" r="2"/><circle cx="58" cy="45" r="2"/><circle cx="68" cy="45" r="2"/><circle cx="78" cy="45" r="2"/>
  </g>
  <!-- Screws -->
  <circle cx="20" cy="38" r="4" fill="none" stroke="#0055bb" stroke-width="1.5"/>
  <circle cx="100" cy="38" r="4" fill="none" stroke="#0055bb" stroke-width="1.5"/>
</svg>
